<svg xmlns="http://www.w3.org/2000/svg"
     width="16" height="16" viewBox="0 0 24 24">
  <!-- Monologo variant: same as icon.svg but 16x16 for small displays -->

  <!-- Bottom layer -->
  <path d="M2.58 17.91A1 1 0 0 1 2 17a1 1 0 0 1 .58-.91l8.6-3.91a2 2 0 0 1 1.65 0l2.12.96a1 1 0 0 1-.01 1.83l-1.28.58 6.75 3.07a1 1 0 0 1 0 1.83l-8.58 3.91a2 2 0 0 1-1.66 0l-8.58-3.91a1 1 0 0 1-.01-1.83l1.3-.59-1.3-.59z"
        fill="#333" fill-opacity="0.45"/>

  <!-- Middle layer -->
  <path d="M2.58 12.91A1 1 0 0 1 2 12a1 1 0 0 1 .58-.91l8.6-3.91a2 2 0 0 1 .83-.18c.28 0 .57.06.83.18l8.58 3.9a1 1 0 0 1 0 1.84l-8.58 3.9a2 2 0 0 1-1.66 0L2.58 12.91z"
        fill="#333" fill-opacity="0.65"/>

  <!-- Top layer -->
  <path d="M12.83 2.18a2 2 0 0 0-1.66 0L2.6 6.08a1 1 0 0 0 0 1.83l8.58 3.91a2 2 0 0 0 1.66 0l8.58-3.9a1 1 0 0 0 0-1.84L12.83 2.18z"
        fill="#333"/>

  <!-- Plus sign -->
  <rect x="17.5" y="14" width="3" height="6" rx="0.5" fill="#333"/>
  <rect x="16" y="15.5" width="6" height="3" rx="0.5" fill="#333"/>
</svg>
